<?xml version="1.0" encoding="UTF-8" standalone="no"?>
<!DOCTYPE svg PUBLIC "-//W3C//DTD SVG 1.1//EN" "http://www.w3.org/Graphics/SVG/1.1/DTD/svg11.dtd">
<svg version="1.1" xmlns="http://www.w3.org/2000/svg" xmlns:xlink="http://www.w3.org/1999/xlink" preserveAspectRatio="xMidYMid meet" viewBox="0 0 1200 630" width="1200" height="630"><defs><path d="M403.36 71.72L646.34 71.72L646.34 519.98L403.36 519.98L403.36 71.72Z" id="bE6soYVMZ"></path><path d="M403.36 71.72L471.6 295.85L403.36 519.98L403.36 71.72Z" id="bdymIn0oD"></path><path d="M646.34 71.72L578.11 295.85L646.34 519.98L646.34 71.72Z" id="bRpVOgR6p"></path><path d="M403.36 71.72L471.6 124.89L471.6 295.85L403.36 71.72Z" id="b2d60WtWU"></path><path d="M646.34 71.72L578.11 126.29L578.11 295.85L646.34 71.72Z" id="a18k83oxzv"></path><path d="M403.36 519.98L471.6 474.76L471.6 295.85L403.36 519.98Z" id="fE2zPMpmJ"></path><path d="M646.34 519.98L578.11 472.67L578.11 295.85L646.34 519.98Z" id="apGRylmvd"></path><path d="M42.89 71.72L285.86 71.72L285.86 519.98L42.89 519.98L42.89 71.72Z" id="aurkiaRcF"></path><path d="M227.32 71.72L184.52 266.53L137.22 266.53L107.93 71.72L227.32 71.72Z" id="b1a8N253bi"></path><path d="M225.32 519.98L185.53 325.17L141.54 325.17L114.31 519.98L225.32 519.98Z" id="b14H58rNa"></path><path d="M113.13 519.98L97.2 325.17L140.45 325.17L113.13 519.98Z" id="fqd0bR6of"></path><path d="M225.32 519.98L225.32 325.17L185.53 325.17L225.32 519.98Z" id="cerXYrHNu"></path><path d="M106.86 68.27L97.2 266.53L137.56 266.53L106.86 68.27Z" id="cl8QGLoAH"></path><path d="M227.77 266.53L184.53 266.53L227.77 71.87L227.77 266.53Z" id="a3DMAJKwT"></path></defs><g><g><g><use xlink:href="#bE6soYVMZ" opacity="1" fill="#fe5e41" fill-opacity="1"></use></g><g><use xlink:href="#bdymIn0oD" opacity="1" fill="#0b0500" fill-opacity="1"></use><g><use xlink:href="#bdymIn0oD" opacity="1" fill-opacity="0" stroke="#000000" stroke-width="1" stroke-opacity="1"></use></g></g><g><use xlink:href="#bRpVOgR6p" opacity="1" fill="#0b0500" fill-opacity="1"></use><g><use xlink:href="#bRpVOgR6p" opacity="1" fill-opacity="0" stroke="#000000" stroke-width="1" stroke-opacity="1"></use></g></g><g><use xlink:href="#b2d60WtWU" opacity="1" fill="#d8f1a0" fill-opacity="1"></use></g><g><use xlink:href="#a18k83oxzv" opacity="1" fill="#d8f1a0" fill-opacity="1"></use></g><g><use xlink:href="#fE2zPMpmJ" opacity="1" fill="#d8f1a0" fill-opacity="1"></use></g><g><use xlink:href="#apGRylmvd" opacity="1" fill="#d8f1a0" fill-opacity="1"></use></g><g><use xlink:href="#aurkiaRcF" opacity="1" fill="#fe5e41" fill-opacity="1"></use></g><g><use xlink:href="#b1a8N253bi" opacity="1" fill="#0b0500" fill-opacity="1"></use><g><use xlink:href="#b1a8N253bi" opacity="1" fill-opacity="0" stroke="#000000" stroke-width="1" stroke-opacity="1"></use></g></g><g><use xlink:href="#b14H58rNa" opacity="1" fill="#0b0500" fill-opacity="1"></use><g><use xlink:href="#b14H58rNa" opacity="1" fill-opacity="0" stroke="#000000" stroke-width="1" stroke-opacity="1"></use></g></g><g><use xlink:href="#fqd0bR6of" opacity="1" fill="#d8f1a0" fill-opacity="1"></use></g><g><use xlink:href="#cerXYrHNu" opacity="1" fill="#d8f1a0" fill-opacity="1"></use></g><g><use xlink:href="#cl8QGLoAH" opacity="1" fill="#d8f1a0" fill-opacity="1"></use></g><g><use xlink:href="#a3DMAJKwT" opacity="1" fill="#d8f1a0" fill-opacity="1.00"></use></g></g></g></svg>